<?xml version="1.0" encoding="UTF-8"?> <svg xmlns="http://www.w3.org/2000/svg"><filter id="grayscale"><feColorMatrix type="saturate" values="0"></feColorMatrix></filter><g filter="url(#grayscale)"><svg xmlns="http://www.w3.org/2000/svg" viewBox="66.52600000000001 178.631 476.36601220703125 217.73775848997386"><g transform="rotate(0 175.39487924498692 287.4998792449869)"><svg xmlns="http://www.w3.org/2000/svg" xmlns:xlink="http://www.w3.org/1999/xlink" version="1.1" id="Layer_1" x="136.526" y="248.631" viewBox="11.5 10.699999809265137 112 112.00000762939453" xml:space="preserve" height="77.73775848997383" width="77.73775848997383" preserveAspectRatio="xMinYMin" style="overflow: visible;"><path class="st0" d="M14.9,101.9l58.6-13.6c2.2-0.5,2.9-3.3,1.2-4.9L16.2,32.2c-1.8-1.6-4.7-0.3-4.7,2.1v64.9 C11.5,101,13.2,102.3,14.9,101.9z" style="fill: #000000; fill-opacity: 1;"></path><path class="st1" d="M11.5,16.5v3.6c0,0.8,0.4,1.6,1,2.1l35.4,31c1.3,1.2,3.4,0.8,4.3-0.7L74.7,15c1.1-1.9-0.2-4.3-2.4-4.3h-55 C14.1,10.7,11.5,13.3,11.5,16.5z" style="fill: #000000; fill-opacity: 1;"></path><path class="st0" d="M82.2,12.1L55.4,56.8C54.7,58,55,59.5,56,60.4l27.8,24.4c0.7,0.6,1.6,0.8,2.5,0.6l35-8.1 c1.3-0.3,2.2-1.4,2.2-2.7v-58c0-3.2-2.6-5.8-5.8-5.8H84.7C83.7,10.7,82.7,11.3,82.2,12.1z" style="fill: #000000; fill-opacity: 1;"></path><path class="st1" d="M120,82.7L13.7,107.3c-1.3,0.3-2.2,1.4-2.2,2.7v6.9c0,3.2,2.6,5.8,5.8,5.8h100.4c3.2,0,5.8-2.6,5.8-5.8V85.4 C123.5,83.6,121.8,82.3,120,82.7z" style="fill: #000000; fill-opacity: 1;"></path></svg></g><g transform="rotate(0 351.41700610351563 287.5)"><svg xmlns="http://www.w3.org/2000/svg" y="265.625" viewBox="1.9000000953674316 15.449999809265137 242.95001220703125 43.75" x="229.942" height="43.75" width="242.95001220703125" style="overflow: visible;"><g fill="#000000" fill-opacity="1" style=""><path d="M10.45 58.81L1.90 58.81L1.90 15.84L10.40 15.84L10.40 33.06L14.40 15.84L23.05 15.84L18.24 35.52L24.05 58.81L15.14 58.81L10.45 38.01L10.45 58.81ZM34.20 58.81L25.51 58.81L25.51 15.84L38.70 15.84Q41.99 15.84 43.68 17.35Q45.36 18.85 45.94 21.55Q46.51 24.24 46.51 27.88L46.51 27.88Q46.51 31.40 45.62 33.50Q44.73 35.60 42.26 36.40L42.26 36.40Q44.29 36.82 45.10 38.42Q45.92 40.01 45.92 42.55L45.92 42.55L45.92 58.81L37.45 58.81L37.45 41.99Q37.45 40.11 36.68 39.66Q35.91 39.21 34.20 39.21L34.20 39.21L34.20 58.81ZM34.25 23.80L34.25 31.76L36.33 31.76Q38.11 31.76 38.11 27.88L38.11 27.88Q38.11 25.37 37.72 24.58Q37.33 23.80 36.25 23.80L36.25 23.80L34.25 23.80ZM56.52 58.81L48.17 58.81L52.32 15.84L66.89 15.84L70.97 58.81L62.84 58.81L62.23 51.88L57.06 51.88L56.52 58.81ZM59.30 23.17L57.67 45.02L61.57 45.02L59.69 23.17L59.30 23.17ZM83.62 59.20L83.62 59.20Q78.96 59.20 76.11 56.30Q73.27 53.39 73.27 48.17L73.27 48.17L73.27 28.34Q73.27 22.09 75.74 18.77Q78.22 15.45 83.81 15.45L83.81 15.45Q86.87 15.45 89.25 16.58Q91.63 17.70 92.99 19.93Q94.36 22.17 94.36 25.56L94.36 25.56L94.36 32.98L85.82 32.98L85.82 26.64Q85.82 24.71 85.33 24.04Q84.84 23.36 83.81 23.36L83.81 23.36Q82.62 23.36 82.20 24.23Q81.79 25.10 81.79 26.54L81.79 26.54L81.79 48.05Q81.79 49.83 82.31 50.56Q82.84 51.29 83.81 51.29L83.81 51.29Q84.91 51.29 85.36 50.39Q85.82 49.49 85.82 48.05L85.82 48.05L85.82 40.31L94.46 40.31L94.46 48.44Q94.46 54.10 91.60 56.65Q88.75 59.20 83.62 59.20ZM105.86 58.81L97.31 58.81L97.31 15.84L105.86 15.84L105.86 31.20L109.91 31.20L109.91 15.84L118.46 15.84L118.46 58.81L109.91 58.81L109.91 39.33L105.86 39.33L105.86 58.81ZM134.55 58.81L125.95 58.81L125.95 24.10L120.85 24.10L120.85 15.84L139.65 15.84L139.65 24.10L134.55 24.10L134.55 58.81ZM153.69 58.81L142.04 58.81L142.04 15.84L153.69 15.84Q158.37 15.84 160.51 18.13Q162.65 20.41 162.65 25.66L162.65 25.66L162.65 27.54Q162.65 30.57 161.56 32.45Q160.47 34.33 158.25 34.91L158.25 34.91Q161.16 35.64 162.15 38.34Q163.13 41.04 163.13 44.92L163.13 44.92Q163.13 49.10 162.35 52.22Q161.57 55.35 159.52 57.08Q157.47 58.81 153.69 58.81L153.69 58.81ZM150.44 22.49L150.44 32.03L152.20 32.03Q153.39 32.03 153.74 31.10Q154.08 30.18 154.08 28.88L154.08 28.88L154.08 24.56Q154.08 22.49 152.25 22.49L152.25 22.49L150.44 22.49ZM151.29 51.25L151.29 51.25Q154.64 51.25 154.64 48.07L154.64 48.07L154.64 42.70Q154.64 40.87 154.09 39.81Q153.54 38.75 152.03 38.75L152.03 38.75L150.44 38.75L150.44 51.20Q150.98 51.25 151.29 51.25ZM173.14 58.81L164.79 58.81L168.95 15.84L183.52 15.84L187.60 58.81L179.47 58.81L178.86 51.88L173.68 51.88L173.14 58.81ZM175.93 23.17L174.29 45.02L178.20 45.02L176.32 23.17L175.93 23.17ZM200.44 59.20L200.44 59.20Q194.56 59.20 191.96 56.27Q189.36 53.34 189.36 46.95L189.36 46.95L189.36 42.75L197.85 42.75L197.85 48.12Q197.85 49.61 198.30 50.45Q198.75 51.29 199.88 51.29L199.88 51.29Q201.05 51.29 201.50 50.61Q201.95 49.93 201.95 48.36L201.95 48.36Q201.95 46.39 201.56 45.06Q201.17 43.73 200.21 42.52Q199.24 41.31 197.53 39.70L197.53 39.70L193.68 36.04Q189.36 31.96 189.36 26.71L189.36 26.71Q189.36 21.22 191.91 18.33Q194.46 15.45 199.29 15.45L199.29 15.45Q205.20 15.45 207.68 18.60Q210.16 21.75 210.16 28.17L210.16 28.17L201.42 28.17L201.42 25.22Q201.42 24.34 200.92 23.85Q200.42 23.36 199.56 23.36L199.56 23.36Q198.54 23.36 198.06 23.94Q197.58 24.51 197.58 25.42L197.58 25.42Q197.58 26.32 198.07 27.37Q198.56 28.42 200 29.79L200 29.79L204.96 34.55Q206.45 35.96 207.69 37.54Q208.94 39.11 209.69 41.20Q210.45 43.29 210.45 46.29L210.45 46.29Q210.45 52.34 208.22 55.77Q205.98 59.20 200.44 59.20ZM221.22 58.81L212.92 58.81L212.92 15.84L221.22 15.84L221.22 58.81ZM234.84 59.20L234.84 59.20Q228.96 59.20 226.35 56.27Q223.75 53.34 223.75 46.95L223.75 46.95L223.75 42.75L232.25 42.75L232.25 48.12Q232.25 49.61 232.70 50.45Q233.15 51.29 234.28 51.29L234.28 51.29Q235.45 51.29 235.90 50.61Q236.35 49.93 236.35 48.36L236.35 48.36Q236.35 46.39 235.96 45.06Q235.57 43.73 234.61 42.52Q233.64 41.31 231.93 39.70L231.93 39.70L228.08 36.04Q223.75 31.96 223.75 26.71L223.75 26.71Q223.75 21.22 226.31 18.33Q228.86 15.45 233.69 15.45L233.69 15.45Q239.60 15.45 242.08 18.60Q244.56 21.75 244.56 28.17L244.56 28.17L235.82 28.17L235.82 25.22Q235.82 24.34 235.31 23.85Q234.81 23.36 233.96 23.36L233.96 23.36Q232.93 23.36 232.46 23.94Q231.98 24.51 231.98 25.42L231.98 25.42Q231.98 26.32 232.47 27.37Q232.96 28.42 234.40 29.79L234.40 29.79L239.36 34.55Q240.84 35.96 242.09 37.54Q243.33 39.11 244.09 41.20Q244.85 43.29 244.85 46.29L244.85 46.29Q244.85 52.34 242.61 55.77Q240.38 59.20 234.84 59.20Z" transform="translate(0, 0)"></path></g></svg></g></svg></g></svg> 